# xmcd
#
# Track frame offsets:
#	150
#	9223
#	21531
#	37775
#	53500
#	60002
#	71764
#	90095
#	98332
#	108056
#	124956
#	132734
#	142151
#	146814
#	169171
#
# Disc length: 3921 seconds
#
# Revision: 0
# Processed by: cddbd v1.5PL3 Copyright (c) Steve Scherf et al.
# Submitted via: dBpowerAMP V4.0
#
DISCID=bf0f4f0f
DTITLE=Thaddeus Jude - arpeggiated ampidynes
DYEAR=2003
DGENRE=Blues
TTITLE0=But
TTITLE1=Blossoms (of purple and pink)
TTITLE2=Whiskey in my sno-cone
TTITLE3=Cremenito
TTITLE4=Happyyy
TTITLE5=Thadd-e-yus
TTITLE6=you like dat
TTITLE7=Hajime Koolo
TTITLE8=Outer Space
TTITLE9=Trans-c (The Change)
TTITLE10=Na-nga-Def
TTITLE11=erp-erp-ooe
TTITLE12=monneyyy
TTITLE13=Skapow
TTITLE14=Skazzz
EXTD=
EXTT0=
EXTT1=
EXTT2=
EXTT3=
EXTT4=
EXTT5=
EXTT6=
EXTT7=
EXTT8=
EXTT9=
EXTT10=
EXTT11=
EXTT12=
EXTT13=
EXTT14=
PLAYORDER=
